<svg id="visual" viewBox="0 0 540 960" width="540" height="960" xmlns="http://www.w3.org/2000/svg" xmlns:xlink="http://www.w3.org/1999/xlink" version="1.1"><rect x="0" y="0" width="540" height="960" fill="#d3e3fd"></rect><defs><linearGradient id="grad1_0" x1="0%" y1="0%" x2="100%" y2="100%"><stop offset="30%" stop-color="#d3e3fd" stop-opacity="1"></stop><stop offset="70%" stop-color="#d3e3fd" stop-opacity="1"></stop></linearGradient></defs><defs><linearGradient id="grad2_0" x1="0%" y1="0%" x2="100%" y2="100%"><stop offset="30%" stop-color="#d3e3fd" stop-opacity="1"></stop><stop offset="70%" stop-color="#d3e3fd" stop-opacity="1"></stop></linearGradient></defs><g transform="translate(540, 0)"><path d="M0 324C-61.5 318.3 -123 312.6 -162 280.6C-201 248.6 -217.5 190.2 -240.8 139C-264 87.8 -294 43.9 -324 0L0 0Z" fill="#b3d9f7"></path></g><g transform="translate(0, 960)"><path d="M0 -324C58.5 -316.6 117 -309.2 162 -280.6C207 -252 238.5 -202.3 263.3 -152C288 -101.7 306 -50.9 324 0L0 0Z" fill="#b3d9f7"></path></g></svg>