<svg id="visual" viewBox="0 0 960 540" width="960" height="540" xmlns="http://www.w3.org/2000/svg" xmlns:xlink="http://www.w3.org/1999/xlink" version="1.1"><rect x="0" y="0" width="960" height="540" fill="#d3e3fd"></rect><defs><linearGradient id="grad1_0" x1="43.8%" y1="0%" x2="100%" y2="100%"><stop offset="14.444444444444446%" stop-color="#d3e3fd" stop-opacity="1"></stop><stop offset="85.55555555555554%" stop-color="#d3e3fd" stop-opacity="1"></stop></linearGradient></defs><defs><linearGradient id="grad2_0" x1="0%" y1="0%" x2="56.3%" y2="100%"><stop offset="14.444444444444446%" stop-color="#d3e3fd" stop-opacity="1"></stop><stop offset="85.55555555555554%" stop-color="#d3e3fd" stop-opacity="1"></stop></linearGradient></defs><g transform="translate(960, 0)"><path d="M0 324C-56.9 315.6 -113.8 307.3 -162 280.6C-210.2 253.9 -249.8 208.8 -275.4 159C-301 109.2 -312.5 54.6 -324 0L0 0Z" fill="#b3d9f7"></path></g><g transform="translate(0, 540)"><path d="M0 -324C47.7 -300.5 95.3 -276.9 146 -252.9C196.7 -228.8 250.4 -204.2 280.6 -162C310.8 -119.8 317.4 -59.9 324 0L0 0Z" fill="#b3d9f7"></path></g></svg>